<svg xmlns="http://www.w3.org/2000/svg" xmlns:xlink="http://www.w3.org/1999/xlink" width="40" height="40" viewBox="0 0 40 40"><defs><clipPath id="a"><rect width="40" height="40" transform="translate(0.104)" fill="#fffefe"/></clipPath></defs><g transform="translate(-0.104)" clip-path="url(#a)"><path d="M5.859,40H18.906V25.781H14.219V21.094h4.688V15.234a5.866,5.866,0,0,1,5.859-5.859h5.859v4.688H25.938a2.346,2.346,0,0,0-2.344,2.344v4.688h6.82l-.781,4.688H23.594V40H34.141A5.866,5.866,0,0,0,40,34.141V5.859A5.866,5.866,0,0,0,34.141,0H5.859A5.866,5.866,0,0,0,0,5.859V34.141A5.866,5.866,0,0,0,5.859,40ZM2.344,5.859A3.52,3.52,0,0,1,5.859,2.344H34.141a3.52,3.52,0,0,1,3.516,3.516V34.141a3.52,3.52,0,0,1-3.516,3.516h-8.2V28.125h5.68L33.18,18.75H25.938V16.406h7.031V7.031h-8.2a8.212,8.212,0,0,0-8.2,8.2V18.75H11.875v9.375h4.688v9.531H5.859a3.52,3.52,0,0,1-3.516-3.516Zm0,0" transform="translate(-0.105)" fill="#fffefe"/></g></svg>