<svg xmlns="http://www.w3.org/2000/svg" xmlns:xlink="http://www.w3.org/1999/xlink" width="40" height="40" viewBox="0 0 40 40"><defs><clipPath id="a"><rect width="40" height="40" fill="#1c3a19"/></clipPath></defs><g clip-path="url(#a)"><path d="M5.859,40H34.141A5.866,5.866,0,0,0,40,34.141V5.859A5.866,5.866,0,0,0,34.141,0H5.859A5.866,5.866,0,0,0,0,5.859V34.141A5.866,5.866,0,0,0,5.859,40ZM2.344,5.859A3.52,3.52,0,0,1,5.859,2.344H34.141a3.52,3.52,0,0,1,3.516,3.516V34.141a3.52,3.52,0,0,1-3.516,3.516H5.859a3.52,3.52,0,0,1-3.516-3.516Zm0,0" fill="#1c3a19"/><path d="M20,30.547A10.547,10.547,0,1,0,9.453,20,10.559,10.559,0,0,0,20,30.547ZM20,11.8A8.2,8.2,0,1,1,11.8,20,8.212,8.212,0,0,1,20,11.8Zm0,0" fill="#1c3a19"/><path d="M31.719,11.8A3.516,3.516,0,1,0,28.2,8.281,3.52,3.52,0,0,0,31.719,11.8Zm0-4.687a1.172,1.172,0,1,1-1.172,1.172A1.173,1.173,0,0,1,31.719,7.109Zm0,0" fill="#1c3a19"/></g></svg>