<svg xmlns="http://www.w3.org/2000/svg" xmlns:xlink="http://www.w3.org/1999/xlink" width="40" height="40" viewBox="0 0 40 40"><defs><clipPath id="a"><rect width="40" height="40" transform="translate(0.104)" fill="#fff"/></clipPath></defs><g transform="translate(-0.104)" clip-path="url(#a)"><g transform="translate(-0.105 0)"><path d="M9.674,37.146a19.854,19.854,0,0,0,10.255,2.84A20.1,20.1,0,0,0,40,19.993,19.993,19.993,0,1,0,2.854,30.325L0,40ZM2.357,19.993a17.566,17.566,0,1,1,8.12,14.894l-.45-.288L3.465,36.535,5.4,29.973l-.288-.45a17.647,17.647,0,0,1-2.756-9.53Zm0,0" transform="translate(0 0)" fill="#fff"/><path d="M9.737,16.309a18.071,18.071,0,0,0,4.88,9.285,18.072,18.072,0,0,0,9.286,4.88c2.327.443,5.742.51,7.411-1.159l.93-.93a2.487,2.487,0,0,0,0-3.517l-3.721-3.721a2.487,2.487,0,0,0-3.517,0l-.93.93a1.655,1.655,0,0,1-2.213.007l-3.712-3.867-.017-.017a1.462,1.462,0,0,1,0-2.065l.93-.93a2.485,2.485,0,0,0,0-3.517L15.343,7.967a2.49,2.49,0,0,0-3.517,0l-.93.93h0c-1.332,1.332-1.776,4.172-1.159,7.412Zm2.816-5.755c.977-.954.924-.973,1.032-.973a.144.144,0,0,1,.1.042c3.921,3.942,3.763,3.71,3.763,3.823a.141.141,0,0,1-.042.1l-.93.93a3.8,3.8,0,0,0-.009,5.368l3.714,3.87.017.017a4,4,0,0,0,5.534,0l.93-.93a.144.144,0,0,1,.2,0c3.921,3.942,3.763,3.71,3.763,3.823a.14.14,0,0,1-.042.1l-.93.93c-.638.638-2.668,1.019-5.317.515a15.7,15.7,0,0,1-8.067-4.236,15.7,15.7,0,0,1-4.235-8.067c-.5-2.649-.123-4.68.514-5.317Zm0,0" transform="translate(0 0)" fill="#fff"/></g></g></svg>